# xmcd
#
# Track frame offsets:
#	150
#	13282
#	29292
#	43827
#	57830
#	71430
#	87367
#	99662
#	118705
#	140060
#	166503
#	188880
#	207975
#	227028
#	256940
#	275558
#	292353
#	306550
#	323698
#
# Disc length: 4560
#
# Revision: 1
# Processed by: cddbd v1.5.1PL0 Copyright (c) Steve Scherf et al.
# Submitted via: CDex 1.50
# Normalized: r0:TDELIM( - )
#
DISCID=2111ce13
DTITLE=Various Artist - Cool Summer Jazz [CD 2)
DYEAR=2003
DGENRE=Jazz
TTITLE0=Bille Holiday - That Ole Devil Called Love
TTITLE1=Ella Fitzgerald - Ev'ry Time We Say Goodbye
TTITLE2=Louis Armstrong - We Have All The Time In the World
TTITLE3=Mel Torme - You're Getting To Be A Habit With Me
TTITLE4=Dinah Washington - Lover Man
TTITLE5=Lou Rawls - Summertime
TTITLE6=Nat 'King' Cole and George Shearing Quintet - Let There Be Love
TTITLE7=Randy Crawford - You Might Need Somebody
TTITLE8=Bobby Caldwell - What You Won't Do For Love
TTITLE9=Ronnie Lewis - Every Generation
TTITLE10=Average White Band - If I Ever Lose This Heaven
TTITLE11=Al Jarreau - Mornin'
TTITLE12=Dave Koz - Together Again
TTITLE13=Acoustic Alchemy - Angel Of the South
TTITLE14=Dianne Reeves - Smile
TTITLE15=Chet Baker - Let's Get Lost
TTITLE16=Hil St. Soul - Until You Come Back To Me
TTITLE17=Donna Gardier - How Sweet It Is (To Be Loved By You)
TTITLE18=Richard Elliot - When A Man Loves A Woman
EXTD=YEAR: 2003
EXTT0=
EXTT1=
EXTT2=
EXTT3=
EXTT4=
EXTT5=
EXTT6=
EXTT7=
EXTT8=
EXTT9=
EXTT10=
EXTT11=
EXTT12=
EXTT13=
EXTT14=
EXTT15=
EXTT16=
EXTT17=
EXTT18=
PLAYORDER=
